<?xml version="1.0"?>
<svg xmlns="http://www.w3.org/2000/svg" width="166" height="123" viewBox="0 0 166 123" fill="none">
<g id="Learn by Doing">
<path id="Vector" d="M85.8326 27.6519H38.0251C34.7511 27.6519 32.0898 30.3266 32.0898 33.6171V38.3124" stroke="#00FF84" stroke-width="2" stroke-miterlimit="10" stroke-linecap="round" stroke-linejoin="round"/>
<path id="Vector_2" d="M149.436 62.5198V115.11C149.436 118.401 146.774 121.076 143.5 121.076H38.0251C34.7511 121.076 32.0898 118.401 32.0898 115.11V68.3696" stroke="#00FF84" stroke-width="2" stroke-miterlimit="10" stroke-linecap="round" stroke-linejoin="round"/>
<path id="Vector_3" d="M55.9844 99.6392C72.9094 99.6392 72.1819 77.2791 88.9346 77.2791C106.013 77.2791 104.864 97.6379 127.169 97.6379C127.169 97.6379 142.371 99.4083 148.938 80.0308" stroke="#00FF84" stroke-width="2" stroke-miterlimit="10" stroke-linecap="round" stroke-linejoin="round"/>
<g id="Group">
<path id="Vector_4" d="M8.36751 2.40541L4.76807 4.25272C2.64286 5.34956 1.80044 7.96658 2.89176 10.1025L42.2559 87.3239L53.9732 98.6964C54.7582 99.3314 55.9453 98.7349 55.8878 97.715L53.5712 81.5126L14.1879 4.2912C13.0966 2.15525 10.4927 1.30857 8.36751 2.40541Z" stroke="#00FF84" stroke-width="2" stroke-miterlimit="10" stroke-linecap="round" stroke-linejoin="round"/>
<path id="Vector_5" d="M6.01172 16.2603L17.327 10.449" stroke="#00FF84" stroke-width="2" stroke-miterlimit="10" stroke-linecap="round" stroke-linejoin="round"/>
<path id="Vector_6" d="M11.3555 26.7283L22.6516 20.917" stroke="#00FF84" stroke-width="2" stroke-miterlimit="10" stroke-linecap="round" stroke-linejoin="round"/>
<path id="Vector_7" d="M42.2578 87.3431C42.2578 87.3431 42.6407 82.898 46.2019 81.07C49.7439 79.2419 53.5731 81.5318 53.5731 81.5318" stroke="#00FF84" stroke-width="2" stroke-miterlimit="10" stroke-linecap="round" stroke-linejoin="round"/>
</g>
<g id="Group_2">
<path id="Vector_8" d="M141.298 16.3372H157.648C160.922 16.3372 163.584 19.0119 163.584 22.3024V56.5354C163.584 59.8259 160.922 62.5006 157.648 62.5006H92.9157C89.6418 62.5006 86.9805 59.8259 86.9805 56.5354V22.3024C86.9805 19.0119 89.6418 16.3372 92.9157 16.3372H112.828" stroke="#00FF84" stroke-width="2" stroke-miterlimit="10" stroke-linecap="round" stroke-linejoin="round"/>
<path id="Vector_9" d="M127.092 56.7086C135.086 56.7086 141.566 50.1955 141.566 42.1611C141.566 34.1267 135.086 27.6135 127.092 27.6135C119.098 27.6135 112.617 34.1267 112.617 42.1611C112.617 50.1955 119.098 56.7086 127.092 56.7086Z" stroke="#00FF84" stroke-width="2" stroke-miterlimit="10" stroke-linecap="round" stroke-linejoin="round"/>
<path id="Vector_10" d="M139.037 23.1299H115.162C113.324 23.1299 111.984 21.4173 112.424 19.6278L114.683 10.2758C114.99 9.00573 116.119 8.10132 117.421 8.10132H136.797C138.099 8.10132 139.228 9.00573 139.535 10.2758L141.794 19.6278C142.215 21.3981 140.856 23.1299 139.037 23.1299Z" stroke="#00FF84" stroke-width="2" stroke-miterlimit="10" stroke-linecap="round" stroke-linejoin="round"/>
<path id="Vector_11" d="M127.092 51.0127C131.956 51.0127 135.899 47.0497 135.899 42.161C135.899 37.2724 131.956 33.3093 127.092 33.3093C122.228 33.3093 118.285 37.2724 118.285 42.161C118.285 47.0497 122.228 51.0127 127.092 51.0127Z" stroke="#00FF84" stroke-width="2" stroke-miterlimit="10" stroke-linecap="round" stroke-linejoin="round"/>
<path id="Vector_12" d="M99.9222 16.3372C99.9222 16.3372 102.488 20.9169 102.488 28.5179C102.488 36.1188 98.582 39.6017 98.582 45.3553C98.582 51.1089 102.488 53.3026 102.488 62.5391" stroke="#00FF84" stroke-width="2" stroke-miterlimit="10" stroke-linecap="round" stroke-linejoin="round"/>
</g>
</g>
</svg>
